# xmcd
#
# Track frame offsets:
#	150
#	16665
#	28908
#	45332
#	62451
#	83374
#	93903
#	118985
#	135496
#	150132
#	164419
#	185024
#	201647
#	213360
#	258882
#	271454
#	281987
#	300810
#
# Disc length: 4329 seconds
#
# Revision: 1
# Processed by: cddbd v1.5.1PL0 Copyright (c) Steve Scherf et al.
# Submitted via: EasyCDDAExtractor 7.1.2.1
#
DISCID=ea10e712
DTITLE=Ambrósio e Grampulino - Pirado por Jesus
DYEAR=1900
DGENRE=Gospel
TTITLE0=Jesus te Ama
TTITLE1=Saia de Cima do Muro
TTITLE2=O Perdão é a Cura
TTITLE3=Pirado por Jesus
TTITLE4=Dona Maroca Fofoqueira
TTITLE5=Tchá, Tchá, Tchá
TTITLE6=Crazy for Jesus
TTITLE7=Passa Fogo
TTITLE8=Pernambuquês
TTITLE9=O Missionário
TTITLE10=Quando eu Digo - Ave Maria
TTITLE11=Bônus Tréqui - Rádio DDD
TTITLE12=DDD - Doidin de Deus (Bônus)
TTITLE13=Bônus14
TTITLE14=Pirado por Jesus Remix (Bônus)
TTITLE15=Bônus16
TTITLE16=Bônus17
TTITLE17=Bônus18
EXTD=
EXTT0=
EXTT1=
EXTT2=
EXTT3=
EXTT4=
EXTT5=
EXTT6=
EXTT7=
EXTT8=
EXTT9=
EXTT10=
EXTT11=
EXTT12=
EXTT13=
EXTT14=
EXTT15=
EXTT16=
EXTT17=
PLAYORDER=
